<?xml version="1.0" encoding="utf-8"?>
<!-- Generator: Adobe Illustrator 18.1.1, SVG Export Plug-In . SVG Version: 6.00 Build 0)  -->
<svg version="1.1" id="Outline_Icons" xmlns="http://www.w3.org/2000/svg" xmlns:xlink="http://www.w3.org/1999/xlink" x="0px"
	 y="0px" viewBox="58 65.5 155.1 155" enable-background="new 58 65.5 155.1 155" xml:space="preserve">
<g>
	<g>
		<path fill="#F0644C" d="M135.6,65.5c-42.7,0-77.6,34.9-77.6,77.6s34.9,77.5,77.6,77.5s77.6-34.9,77.6-77.6S178.3,65.5,135.6,65.5z
			 M135.6,214c-39.4,0-71.1-31.7-71.1-71.1s31.7-71,71.1-71s71.1,31.7,71.1,71.1S175,214,135.6,214z"/>
		<path fill="#FFFFFF" d="M135.6,72c-39.4,0-71.1,31.7-71.1,71.1s31.7,71.1,71.1,71.1s71.1-31.7,71.1-71.1S175,72,135.6,72z"/>
	</g>
	<path fill="#F0644C" d="M124,109.5l43.1,28.2c3.9,2.6,3.9,8.3,0,10.8L124,176.7c-4.3,2.8-10-0.3-10-5.4v-56.4
		C114.1,109.7,119.7,106.6,124,109.5z"/>
</g>
</svg>
